#N canvas 952 0 958 1016 12;
#X floatatom 297 254 5 0 1 0 - - - 0;
#X obj 172 162 soundfiler;
#N canvas 0 50 450 250 (subpatch) 0;
#X array audioData 46300 float 2;
#X coords 0 1 46300 -1 200 140 1;
#X restore 538 122 graph;
#X obj 160 278 *~;
#X obj 198 285 *~;
#X obj 172 324 dac~;
#X obj 134 237 tabplay~ audioData;
#X obj 187 203 bng 19 250 50 0 empty empty empty 0 -10 0 12 #fcfcfc #000000 #000000;
#X obj 61 11 loadbang;
#X msg 62 47 1;
#X msg 61 186 \; pd dsp \$1;
#X obj 61 156 tgl 15 0 empty empty empty 17 7 0 10 #fcfcfc #000000 #000000 0 1;
#X obj 154 68 bng 19 250 50 0 empty empty empty 0 -10 0 12 #fcfcfc #000000 #000000;
#X msg 173 124 read -resize bip.wav audioData;
#X connect 0 0 3 1;
#X connect 0 0 4 1;
#X connect 1 0 7 0;
#X connect 3 0 5 0;
#X connect 4 0 5 1;
#X connect 6 0 3 0;
#X connect 7 0 6 0;
#X connect 8 0 9 0;
#X connect 8 0 12 0;
#X connect 9 0 11 0;
#X connect 11 0 10 0;
#X connect 12 0 13 0;
#X connect 13 0 1 0;
